<svg xmlns="http://www.w3.org/2000/svg" width="165" viewBox="0 0 165 60" height="60" version="1.0"><g fill="#000221"><g><g><path d="M 11.203125 -24.546875 C 14.359375 -24.546875 17.203125 -23.707031 19.734375 -22.03125 L 18.03125 -18.421875 C 15.550781 -19.921875 13.171875 -20.671875 10.890625 -20.671875 C 9.660156 -20.671875 8.691406 -20.453125 7.984375 -20.015625 C 7.273438 -19.578125 6.921875 -18.953125 6.921875 -18.140625 C 6.921875 -17.328125 7.242188 -16.632812 7.890625 -16.0625 C 8.546875 -15.5 9.359375 -15.082031 10.328125 -14.8125 C 11.304688 -14.539062 12.363281 -14.203125 13.5 -13.796875 C 14.644531 -13.390625 15.703125 -12.960938 16.671875 -12.515625 C 17.648438 -12.066406 18.457031 -11.359375 19.09375 -10.390625 C 19.726562 -9.429688 20.046875 -8.265625 20.046875 -6.890625 C 20.046875 -4.753906 19.191406 -3.046875 17.484375 -1.765625 C 15.785156 -0.492188 13.578125 0.140625 10.859375 0.140625 C 9.003906 0.140625 7.207031 -0.207031 5.46875 -0.90625 C 3.726562 -1.601562 2.207031 -2.539062 0.90625 -3.71875 L 2.6875 -7.28125 C 3.914062 -6.132812 5.265625 -5.253906 6.734375 -4.640625 C 8.210938 -4.023438 9.613281 -3.71875 10.9375 -3.71875 C 12.375 -3.71875 13.488281 -3.976562 14.28125 -4.5 C 15.082031 -5.03125 15.484375 -5.757812 15.484375 -6.6875 C 15.484375 -7.519531 15.160156 -8.21875 14.515625 -8.78125 C 13.867188 -9.351562 13.054688 -9.769531 12.078125 -10.03125 C 11.109375 -10.300781 10.050781 -10.628906 8.90625 -11.015625 C 7.769531 -11.398438 6.710938 -11.804688 5.734375 -12.234375 C 4.765625 -12.660156 3.953125 -13.347656 3.296875 -14.296875 C 2.648438 -15.253906 2.328125 -16.40625 2.328125 -17.75 C 2.328125 -19.820312 3.140625 -21.472656 4.765625 -22.703125 C 6.390625 -23.929688 8.535156 -24.546875 11.203125 -24.546875 Z M 11.203125 -24.546875" transform="translate(3.29 38.624)"/></g></g></g><g fill="#000221"><g><g><path d="M 4.90625 -20.9375 C 7.394531 -23.289062 10.457031 -24.46875 14.09375 -24.46875 C 17.738281 -24.46875 20.800781 -23.289062 23.28125 -20.9375 C 25.769531 -18.582031 27.015625 -15.664062 27.015625 -12.1875 C 27.015625 -8.707031 25.769531 -5.773438 23.28125 -3.390625 C 20.800781 -1.015625 17.738281 0.171875 14.09375 0.171875 C 10.457031 0.171875 7.394531 -1.015625 4.90625 -3.390625 C 2.425781 -5.773438 1.1875 -8.707031 1.1875 -12.1875 C 1.1875 -15.664062 2.425781 -18.582031 4.90625 -20.9375 Z M 14.140625 -20.78125 C 11.722656 -20.78125 9.65625 -19.953125 7.9375 -18.296875 C 6.21875 -16.640625 5.359375 -14.601562 5.359375 -12.1875 C 5.359375 -9.769531 6.222656 -7.71875 7.953125 -6.03125 C 9.679688 -4.351562 11.738281 -3.515625 14.125 -3.515625 C 16.519531 -3.515625 18.5625 -4.351562 20.25 -6.03125 C 21.945312 -7.71875 22.796875 -9.769531 22.796875 -12.1875 C 22.796875 -14.601562 21.945312 -16.640625 20.25 -18.296875 C 18.5625 -19.953125 16.523438 -20.78125 14.140625 -20.78125 Z M 14.140625 -20.78125" transform="translate(24.94 38.624)"/></g></g></g><g fill="#000221"><g><g><path d="M 14.6875 -24.375 L 14.6875 -7.515625 C 14.6875 -5.078125 14.015625 -3.1875 12.671875 -1.84375 C 11.328125 -0.5 9.472656 0.171875 7.109375 0.171875 C 4.222656 0.171875 1.832031 -1 -0.0625 -3.34375 L 1.875 -6.46875 C 3.519531 -4.6875 5.25 -3.796875 7.0625 -3.796875 C 8.175781 -3.796875 9.035156 -4.125 9.640625 -4.78125 C 10.242188 -5.445312 10.546875 -6.40625 10.546875 -7.65625 L 10.546875 -20.671875 L 2.125 -20.671875 L 2.125 -24.375 Z M 14.6875 -24.375" transform="translate(53.131 38.624)"/></g></g></g><g fill="#000221"><g><g><path d="M 7.3125 0 L 3.203125 0 L 3.203125 -24.375 L 7.3125 -24.375 Z M 7.3125 0" transform="translate(70.499 38.624)"/></g></g></g><g fill="#000221"><g><g><path d="M 4.984375 -2.546875 L 12.1875 -2.546875 L 12.1875 0 L 2.1875 0 L 2.1875 -16.640625 L 4.984375 -16.640625 Z M 4.984375 -2.546875" transform="translate(80.193 38.093)"/></g></g></g><g fill="#000221"><g><g><path d="M 14.0625 -14.109375 L 4.984375 -14.109375 L 4.984375 -9.625 L 13.125 -9.625 L 13.125 -7.109375 L 4.984375 -7.109375 L 4.984375 -2.515625 L 14.359375 -2.515625 L 14.359375 0 L 2.1875 0 L 2.1875 -16.640625 L 14.0625 -16.640625 Z M 14.0625 -14.109375" transform="translate(92.878 38.093)"/></g></g></g><g fill="#000221"><g><g><path d="M 12.921875 -3.75 L 4.546875 -3.75 L 2.953125 0 L 0.03125 0 L 7.375 -16.640625 L 10.25 -16.640625 L 17.515625 0 L 14.515625 0 Z M 11.859375 -6.25 L 8.71875 -13.640625 L 5.578125 -6.25 Z M 11.859375 -6.25" transform="translate(108.46 38.093)"/></g></g></g><g fill="#000221"><g><g><path d="M 12.734375 0 L 9.703125 -5.03125 C 9.535156 -5.019531 9.28125 -5.015625 8.9375 -5.015625 L 4.984375 -5.015625 L 4.984375 0 L 2.1875 0 L 2.1875 -16.640625 L 8.9375 -16.640625 C 11.0625 -16.640625 12.707031 -16.144531 13.875 -15.15625 C 15.050781 -14.164062 15.640625 -12.765625 15.640625 -10.953125 C 15.640625 -9.617188 15.34375 -8.492188 14.75 -7.578125 C 14.15625 -6.660156 13.300781 -5.988281 12.1875 -5.5625 L 15.921875 0 Z M 4.984375 -7.53125 L 8.9375 -7.53125 C 11.625 -7.53125 12.96875 -8.648438 12.96875 -10.890625 C 12.96875 -13.035156 11.625 -14.109375 8.9375 -14.109375 L 4.984375 -14.109375 Z M 4.984375 -7.53125" transform="translate(125.99 38.093)"/></g></g></g><g fill="#000221"><g><g><path d="M 16.609375 0 L 13.859375 0 L 4.984375 -11.9375 L 4.984375 0 L 2.1875 0 L 2.1875 -16.640625 L 4.9375 -16.640625 L 13.859375 -4.6875 L 13.859375 -16.640625 L 16.609375 -16.640625 Z M 16.609375 0" transform="translate(143.165 38.093)"/></g></g></g><g fill="#000221"><g><g><path d="M 2.109375 -1.078125 L 5.140625 -1.078125 L 5.140625 0 L 0.921875 0 L 0.921875 -7.015625 L 2.109375 -7.015625 Z M 2.109375 -1.078125" transform="translate(3.34 49.834)"/></g></g></g><g fill="#000221"><g><g><path d="M 3.046875 -5.375 C 3.960938 -5.375 4.625 -5.097656 5.03125 -4.546875 C 5.445312 -3.992188 5.617188 -3.222656 5.546875 -2.234375 L 1.515625 -2.234375 C 1.609375 -1.816406 1.800781 -1.488281 2.09375 -1.25 C 2.382812 -1.007812 2.742188 -0.890625 3.171875 -0.890625 C 3.773438 -0.890625 4.273438 -1.097656 4.671875 -1.515625 L 5.28125 -0.859375 C 4.738281 -0.253906 4.003906 0.046875 3.078125 0.046875 C 2.253906 0.046875 1.59375 -0.203125 1.09375 -0.703125 C 0.59375 -1.203125 0.34375 -1.851562 0.34375 -2.65625 C 0.34375 -3.457031 0.59375 -4.109375 1.09375 -4.609375 C 1.601562 -5.109375 2.253906 -5.363281 3.046875 -5.375 Z M 1.5 -3.0625 L 4.546875 -3.0625 C 4.523438 -3.5 4.378906 -3.835938 4.109375 -4.078125 C 3.847656 -4.328125 3.5 -4.453125 3.0625 -4.453125 C 2.632812 -4.453125 2.28125 -4.328125 2 -4.078125 C 1.726562 -3.835938 1.5625 -3.5 1.5 -3.0625 Z M 1.5 -3.0625" transform="translate(8.69 49.834)"/></g></g></g><g fill="#000221"><g><g><path d="M 4.046875 0 L 4.046875 -0.65625 C 3.671875 -0.1875 3.082031 0.046875 2.28125 0.046875 C 1.71875 0.046875 1.265625 -0.101562 0.921875 -0.40625 C 0.578125 -0.71875 0.40625 -1.117188 0.40625 -1.609375 C 0.40625 -2.097656 0.582031 -2.484375 0.9375 -2.765625 C 1.289062 -3.054688 1.785156 -3.203125 2.421875 -3.203125 L 4.046875 -3.203125 L 4.046875 -3.375 C 4.046875 -3.707031 3.9375 -3.96875 3.71875 -4.15625 C 3.5 -4.34375 3.179688 -4.4375 2.765625 -4.4375 C 2.253906 -4.4375 1.726562 -4.257812 1.1875 -3.90625 L 0.71875 -4.703125 C 1.125 -4.941406 1.488281 -5.113281 1.8125 -5.21875 C 2.144531 -5.320312 2.546875 -5.375 3.015625 -5.375 C 3.703125 -5.375 4.234375 -5.207031 4.609375 -4.875 C 4.984375 -4.550781 5.171875 -4.09375 5.171875 -3.5 L 5.1875 0 Z M 2.53125 -0.859375 C 2.9375 -0.859375 3.28125 -0.953125 3.5625 -1.140625 C 3.851562 -1.335938 4.015625 -1.582031 4.046875 -1.875 L 4.046875 -2.375 L 2.59375 -2.375 C 2.21875 -2.375 1.941406 -2.316406 1.765625 -2.203125 C 1.585938 -2.085938 1.5 -1.90625 1.5 -1.65625 C 1.5 -1.414062 1.585938 -1.222656 1.765625 -1.078125 C 1.953125 -0.929688 2.207031 -0.859375 2.53125 -0.859375 Z M 2.53125 -0.859375" transform="translate(14.582 49.834)"/></g></g></g><g fill="#000221"><g><g><path d="M 2 -5.34375 L 2 -4.265625 C 2.375 -5.003906 2.992188 -5.375 3.859375 -5.375 L 3.859375 -4.265625 C 3.328125 -4.296875 2.894531 -4.171875 2.5625 -3.890625 C 2.238281 -3.617188 2.050781 -3.25 2 -2.78125 L 2 0 L 0.859375 0 L 0.859375 -5.34375 Z M 2 -5.34375" transform="translate(20.453 49.834)"/></g></g></g><g fill="#000221"><g><g><path d="M 3.96875 -5.375 C 4.59375 -5.375 5.078125 -5.191406 5.421875 -4.828125 C 5.773438 -4.460938 5.953125 -3.960938 5.953125 -3.328125 L 5.953125 0 L 4.8125 0 L 4.8125 -3 C 4.8125 -3.394531 4.695312 -3.707031 4.46875 -3.9375 C 4.238281 -4.175781 3.921875 -4.296875 3.515625 -4.296875 C 3.085938 -4.285156 2.738281 -4.144531 2.46875 -3.875 C 2.195312 -3.613281 2.039062 -3.269531 2 -2.84375 L 2 0 L 0.859375 0 L 0.859375 -5.34375 L 2 -5.34375 L 2 -4.3125 C 2.363281 -5.019531 3.019531 -5.375 3.96875 -5.375 Z M 3.96875 -5.375" transform="translate(24.4 49.834)"/></g></g></g><g fill="#000221"><g><g><path d="M 0.921875 -7.015625 L 3.71875 -7.015625 C 4.601562 -7.015625 5.285156 -6.804688 5.765625 -6.390625 C 6.253906 -5.972656 6.5 -5.382812 6.5 -4.625 C 6.5 -3.832031 6.253906 -3.210938 5.765625 -2.765625 C 5.285156 -2.328125 4.601562 -2.109375 3.71875 -2.109375 L 2.109375 -2.109375 L 2.109375 0 L 0.921875 0 Z M 2.109375 -5.953125 L 2.109375 -3.1875 L 3.671875 -3.1875 C 4.796875 -3.1875 5.359375 -3.65625 5.359375 -4.59375 C 5.359375 -5.5 4.796875 -5.953125 3.671875 -5.953125 Z M 2.109375 -5.953125" transform="translate(33.629 49.834)"/></g></g></g><g fill="#000221"><g><g><path d="M 2 -5.34375 L 2 -4.265625 C 2.375 -5.003906 2.992188 -5.375 3.859375 -5.375 L 3.859375 -4.265625 C 3.328125 -4.296875 2.894531 -4.171875 2.5625 -3.890625 C 2.238281 -3.617188 2.050781 -3.25 2 -2.78125 L 2 0 L 0.859375 0 L 0.859375 -5.34375 Z M 2 -5.34375" transform="translate(40.372 49.834)"/></g></g></g><g fill="#000221"><g><g><path d="M 3.140625 -5.375 C 3.960938 -5.375 4.628906 -5.125 5.140625 -4.625 C 5.660156 -4.125 5.921875 -3.472656 5.921875 -2.671875 C 5.921875 -1.867188 5.660156 -1.210938 5.140625 -0.703125 C 4.628906 -0.203125 3.960938 0.046875 3.140625 0.046875 C 2.304688 0.046875 1.628906 -0.203125 1.109375 -0.703125 C 0.597656 -1.210938 0.34375 -1.867188 0.34375 -2.671875 C 0.34375 -3.472656 0.597656 -4.125 1.109375 -4.625 C 1.628906 -5.125 2.304688 -5.375 3.140625 -5.375 Z M 3.140625 -4.390625 C 2.660156 -4.390625 2.265625 -4.226562 1.953125 -3.90625 C 1.648438 -3.582031 1.5 -3.164062 1.5 -2.65625 C 1.5 -2.144531 1.648438 -1.726562 1.953125 -1.40625 C 2.265625 -1.082031 2.660156 -0.921875 3.140625 -0.921875 C 3.617188 -0.921875 4.007812 -1.082031 4.3125 -1.40625 C 4.613281 -1.726562 4.765625 -2.144531 4.765625 -2.65625 C 4.765625 -3.164062 4.613281 -3.582031 4.3125 -3.90625 C 4.007812 -4.226562 3.617188 -4.390625 3.140625 -4.390625 Z M 3.140625 -4.390625" transform="translate(44.32 49.834)"/></g></g></g><g fill="#000221"><g><g><path d="M 2.9375 -6.484375 C 2.726562 -6.484375 2.554688 -6.421875 2.421875 -6.296875 C 2.285156 -6.179688 2.21875 -6.003906 2.21875 -5.765625 L 2.21875 -5.140625 L 3.609375 -5.140625 L 3.609375 -4.265625 L 2.21875 -4.265625 L 2.21875 0 L 1.078125 0 L 1.078125 -4.265625 L 0.375 -4.265625 L 0.375 -5.140625 L 1.078125 -5.140625 L 1.078125 -5.65625 C 1.078125 -6.25 1.253906 -6.703125 1.609375 -7.015625 C 1.972656 -7.335938 2.40625 -7.5 2.90625 -7.5 C 3.375 -7.5 3.773438 -7.375 4.109375 -7.125 L 3.671875 -6.234375 C 3.441406 -6.398438 3.195312 -6.484375 2.9375 -6.484375 Z M 2.9375 -6.484375" transform="translate(50.582 49.834)"/></g></g></g><g fill="#000221"><g><g><path d="M 3.046875 -5.375 C 3.960938 -5.375 4.625 -5.097656 5.03125 -4.546875 C 5.445312 -3.992188 5.617188 -3.222656 5.546875 -2.234375 L 1.515625 -2.234375 C 1.609375 -1.816406 1.800781 -1.488281 2.09375 -1.25 C 2.382812 -1.007812 2.742188 -0.890625 3.171875 -0.890625 C 3.773438 -0.890625 4.273438 -1.097656 4.671875 -1.515625 L 5.28125 -0.859375 C 4.738281 -0.253906 4.003906 0.046875 3.078125 0.046875 C 2.253906 0.046875 1.59375 -0.203125 1.09375 -0.703125 C 0.59375 -1.203125 0.34375 -1.851562 0.34375 -2.65625 C 0.34375 -3.457031 0.59375 -4.109375 1.09375 -4.609375 C 1.601562 -5.109375 2.253906 -5.363281 3.046875 -5.375 Z M 1.5 -3.0625 L 4.546875 -3.0625 C 4.523438 -3.5 4.378906 -3.835938 4.109375 -4.078125 C 3.847656 -4.328125 3.5 -4.453125 3.0625 -4.453125 C 2.632812 -4.453125 2.28125 -4.328125 2 -4.078125 C 1.726562 -3.835938 1.5625 -3.5 1.5 -3.0625 Z M 1.5 -3.0625" transform="translate(54.019 49.834)"/></g></g></g><g fill="#000221"><g><g><path d="M 2.453125 -5.390625 C 3.179688 -5.390625 3.800781 -5.207031 4.3125 -4.84375 L 3.890625 -4 C 3.378906 -4.3125 2.867188 -4.46875 2.359375 -4.46875 C 1.835938 -4.46875 1.578125 -4.289062 1.578125 -3.9375 C 1.578125 -3.757812 1.671875 -3.613281 1.859375 -3.5 C 2.054688 -3.382812 2.289062 -3.285156 2.5625 -3.203125 C 2.84375 -3.128906 3.125 -3.039062 3.40625 -2.9375 C 3.6875 -2.832031 3.921875 -2.664062 4.109375 -2.4375 C 4.304688 -2.207031 4.40625 -1.910156 4.40625 -1.546875 C 4.40625 -1.023438 4.207031 -0.628906 3.8125 -0.359375 C 3.425781 -0.0859375 2.941406 0.046875 2.359375 0.046875 C 1.953125 0.046875 1.554688 -0.015625 1.171875 -0.140625 C 0.796875 -0.273438 0.472656 -0.460938 0.203125 -0.703125 L 0.625 -1.53125 C 0.851562 -1.320312 1.128906 -1.15625 1.453125 -1.03125 C 1.785156 -0.914062 2.101562 -0.859375 2.40625 -0.859375 C 2.664062 -0.859375 2.875 -0.90625 3.03125 -1 C 3.195312 -1.09375 3.28125 -1.238281 3.28125 -1.4375 C 3.28125 -1.632812 3.179688 -1.789062 2.984375 -1.90625 C 2.796875 -2.03125 2.5625 -2.128906 2.28125 -2.203125 C 2.007812 -2.273438 1.734375 -2.363281 1.453125 -2.46875 C 1.179688 -2.570312 0.953125 -2.738281 0.765625 -2.96875 C 0.578125 -3.195312 0.484375 -3.488281 0.484375 -3.84375 C 0.484375 -4.351562 0.671875 -4.738281 1.046875 -5 C 1.421875 -5.257812 1.890625 -5.390625 2.453125 -5.390625 Z M 2.453125 -5.390625" transform="translate(59.91 49.834)"/></g></g></g><g fill="#000221"><g><g><path d="M 2.453125 -5.390625 C 3.179688 -5.390625 3.800781 -5.207031 4.3125 -4.84375 L 3.890625 -4 C 3.378906 -4.3125 2.867188 -4.46875 2.359375 -4.46875 C 1.835938 -4.46875 1.578125 -4.289062 1.578125 -3.9375 C 1.578125 -3.757812 1.671875 -3.613281 1.859375 -3.5 C 2.054688 -3.382812 2.289062 -3.285156 2.5625 -3.203125 C 2.84375 -3.128906 3.125 -3.039062 3.40625 -2.9375 C 3.6875 -2.832031 3.921875 -2.664062 4.109375 -2.4375 C 4.304688 -2.207031 4.40625 -1.910156 4.40625 -1.546875 C 4.40625 -1.023438 4.207031 -0.628906 3.8125 -0.359375 C 3.425781 -0.0859375 2.941406 0.046875 2.359375 0.046875 C 1.953125 0.046875 1.554688 -0.015625 1.171875 -0.140625 C 0.796875 -0.273438 0.472656 -0.460938 0.203125 -0.703125 L 0.625 -1.53125 C 0.851562 -1.320312 1.128906 -1.15625 1.453125 -1.03125 C 1.785156 -0.914062 2.101562 -0.859375 2.40625 -0.859375 C 2.664062 -0.859375 2.875 -0.90625 3.03125 -1 C 3.195312 -1.09375 3.28125 -1.238281 3.28125 -1.4375 C 3.28125 -1.632812 3.179688 -1.789062 2.984375 -1.90625 C 2.796875 -2.03125 2.5625 -2.128906 2.28125 -2.203125 C 2.007812 -2.273438 1.734375 -2.363281 1.453125 -2.46875 C 1.179688 -2.570312 0.953125 -2.738281 0.765625 -2.96875 C 0.578125 -3.195312 0.484375 -3.488281 0.484375 -3.84375 C 0.484375 -4.351562 0.671875 -4.738281 1.046875 -5 C 1.421875 -5.257812 1.890625 -5.390625 2.453125 -5.390625 Z M 2.453125 -5.390625" transform="translate(64.62 49.834)"/></g></g></g><g fill="#000221"><g><g><path d="M 0.9375 -7.359375 C 1.070312 -7.492188 1.234375 -7.5625 1.421875 -7.5625 C 1.617188 -7.5625 1.78125 -7.492188 1.90625 -7.359375 C 2.03125 -7.234375 2.09375 -7.066406 2.09375 -6.859375 C 2.09375 -6.660156 2.03125 -6.492188 1.90625 -6.359375 C 1.78125 -6.234375 1.617188 -6.171875 1.421875 -6.171875 C 1.234375 -6.171875 1.070312 -6.234375 0.9375 -6.359375 C 0.8125 -6.492188 0.75 -6.660156 0.75 -6.859375 C 0.75 -7.066406 0.8125 -7.234375 0.9375 -7.359375 Z M 2 0 L 0.859375 0 L 0.859375 -5.34375 L 2 -5.34375 Z M 2 0" transform="translate(69.328 49.834)"/></g></g></g><g fill="#000221"><g><g><path d="M 3.140625 -5.375 C 3.960938 -5.375 4.628906 -5.125 5.140625 -4.625 C 5.660156 -4.125 5.921875 -3.472656 5.921875 -2.671875 C 5.921875 -1.867188 5.660156 -1.210938 5.140625 -0.703125 C 4.628906 -0.203125 3.960938 0.046875 3.140625 0.046875 C 2.304688 0.046875 1.628906 -0.203125 1.109375 -0.703125 C 0.597656 -1.210938 0.34375 -1.867188 0.34375 -2.671875 C 0.34375 -3.472656 0.597656 -4.125 1.109375 -4.625 C 1.628906 -5.125 2.304688 -5.375 3.140625 -5.375 Z M 3.140625 -4.390625 C 2.660156 -4.390625 2.265625 -4.226562 1.953125 -3.90625 C 1.648438 -3.582031 1.5 -3.164062 1.5 -2.65625 C 1.5 -2.144531 1.648438 -1.726562 1.953125 -1.40625 C 2.265625 -1.082031 2.660156 -0.921875 3.140625 -0.921875 C 3.617188 -0.921875 4.007812 -1.082031 4.3125 -1.40625 C 4.613281 -1.726562 4.765625 -2.144531 4.765625 -2.65625 C 4.765625 -3.164062 4.613281 -3.582031 4.3125 -3.90625 C 4.007812 -4.226562 3.617188 -4.390625 3.140625 -4.390625 Z M 3.140625 -4.390625" transform="translate(72.174 49.834)"/></g></g></g><g fill="#000221"><g><g><path d="M 3.96875 -5.375 C 4.59375 -5.375 5.078125 -5.191406 5.421875 -4.828125 C 5.773438 -4.460938 5.953125 -3.960938 5.953125 -3.328125 L 5.953125 0 L 4.8125 0 L 4.8125 -3 C 4.8125 -3.394531 4.695312 -3.707031 4.46875 -3.9375 C 4.238281 -4.175781 3.921875 -4.296875 3.515625 -4.296875 C 3.085938 -4.285156 2.738281 -4.144531 2.46875 -3.875 C 2.195312 -3.613281 2.039062 -3.269531 2 -2.84375 L 2 0 L 0.859375 0 L 0.859375 -5.34375 L 2 -5.34375 L 2 -4.3125 C 2.363281 -5.019531 3.019531 -5.375 3.96875 -5.375 Z M 3.96875 -5.375" transform="translate(78.436 49.834)"/></g></g></g><g fill="#000221"><g><g><path d="M 4.046875 0 L 4.046875 -0.65625 C 3.671875 -0.1875 3.082031 0.046875 2.28125 0.046875 C 1.71875 0.046875 1.265625 -0.101562 0.921875 -0.40625 C 0.578125 -0.71875 0.40625 -1.117188 0.40625 -1.609375 C 0.40625 -2.097656 0.582031 -2.484375 0.9375 -2.765625 C 1.289062 -3.054688 1.785156 -3.203125 2.421875 -3.203125 L 4.046875 -3.203125 L 4.046875 -3.375 C 4.046875 -3.707031 3.9375 -3.96875 3.71875 -4.15625 C 3.5 -4.34375 3.179688 -4.4375 2.765625 -4.4375 C 2.253906 -4.4375 1.726562 -4.257812 1.1875 -3.90625 L 0.71875 -4.703125 C 1.125 -4.941406 1.488281 -5.113281 1.8125 -5.21875 C 2.144531 -5.320312 2.546875 -5.375 3.015625 -5.375 C 3.703125 -5.375 4.234375 -5.207031 4.609375 -4.875 C 4.984375 -4.550781 5.171875 -4.09375 5.171875 -3.5 L 5.1875 0 Z M 2.53125 -0.859375 C 2.9375 -0.859375 3.28125 -0.953125 3.5625 -1.140625 C 3.851562 -1.335938 4.015625 -1.582031 4.046875 -1.875 L 4.046875 -2.375 L 2.59375 -2.375 C 2.21875 -2.375 1.941406 -2.316406 1.765625 -2.203125 C 1.585938 -2.085938 1.5 -1.90625 1.5 -1.65625 C 1.5 -1.414062 1.585938 -1.222656 1.765625 -1.078125 C 1.953125 -0.929688 2.207031 -0.859375 2.53125 -0.859375 Z M 2.53125 -0.859375" transform="translate(85.079 49.834)"/></g></g></g><g fill="#000221"><g><g><path d="M 2.0625 0 L 0.90625 0 L 0.90625 -7.4375 L 2.0625 -7.4375 Z M 2.0625 0" transform="translate(90.95 49.834)"/></g></g></g><g fill="#000221"><g><g><path d="M 2.0625 0 L 0.90625 0 L 0.90625 -7.4375 L 2.0625 -7.4375 Z M 2.0625 0" transform="translate(93.906 49.834)"/></g></g></g><g fill="#000221"><g><g><path d="M 5.375 -5.34375 L 2.953125 0.734375 C 2.617188 1.578125 2.039062 2 1.21875 2 C 0.75 2 0.335938 1.847656 -0.015625 1.546875 L 0.46875 0.65625 C 0.707031 0.820312 0.9375 0.90625 1.15625 0.90625 C 1.519531 0.90625 1.789062 0.710938 1.96875 0.328125 L 2.15625 -0.078125 L -0.046875 -5.34375 L 1.140625 -5.34375 L 2.734375 -1.296875 L 4.21875 -5.34375 Z M 5.375 -5.34375" transform="translate(96.862 49.834)"/></g></g></g></svg>