<svg xmlns="http://www.w3.org/2000/svg" width="30" viewBox="0 0 30 30" height="30" version="1.0"><defs><clipPath id="a"><path d="M 0.484375 0 L 29.515625 0 L 29.515625 29 L 0.484375 29 Z M 0.484375 0"/></clipPath><clipPath id="b"><path d="M 0.484375 16 L 4 16 L 4 18 L 0.484375 18 Z M 0.484375 16"/></clipPath><clipPath id="c"><path d="M 25 16 L 29.515625 16 L 29.515625 19 L 25 19 Z M 25 16"/></clipPath></defs><g clip-path="url(#a)"><path fill="#FFF" d="M 15 -0.121094 C 6.984375 -0.121094 0.484375 6.375 0.484375 14.394531 C 0.484375 22.410156 6.984375 28.910156 15 28.910156 C 23.015625 28.910156 29.515625 22.410156 29.515625 14.394531 C 29.515625 6.375 23.015625 -0.121094 15 -0.121094"/></g><g fill="#000221"><g><g><path d="M 6.296875 -18.96875 C 6.296875 -18.09375 6.519531 -17.316406 6.96875 -16.640625 C 7.414062 -15.972656 7.960938 -15.382812 8.609375 -14.875 C 9.265625 -14.363281 10.144531 -13.75 11.25 -13.03125 C 12.457031 -12.257812 13.421875 -11.582031 14.140625 -11 C 14.867188 -10.414062 15.484375 -9.707031 15.984375 -8.875 C 16.492188 -8.050781 16.75 -7.09375 16.75 -6 C 16.75 -4.75 16.410156 -3.632812 15.734375 -2.65625 C 15.066406 -1.675781 14.132812 -0.914062 12.9375 -0.375 C 11.738281 0.164062 10.40625 0.4375 8.9375 0.4375 C 7.851562 0.4375 6.71875 0.285156 5.53125 -0.015625 C 4.351562 -0.316406 3.554688 -0.648438 3.140625 -1.015625 C 3.023438 -1.109375 2.9375 -1.195312 2.875 -1.28125 C 2.8125 -1.363281 2.78125 -1.503906 2.78125 -1.703125 L 2.671875 -7.453125 L 2.671875 -7.484375 C 2.671875 -7.585938 2.734375 -7.644531 2.859375 -7.65625 C 2.984375 -7.664062 3.054688 -7.625 3.078125 -7.53125 C 3.796875 -6.050781 4.425781 -4.851562 4.96875 -3.9375 C 5.519531 -3.019531 6.207031 -2.210938 7.03125 -1.515625 C 7.863281 -0.816406 8.8125 -0.46875 9.875 -0.46875 C 10.84375 -0.46875 11.640625 -0.726562 12.265625 -1.25 C 12.890625 -1.769531 13.203125 -2.65625 13.203125 -3.90625 C 13.203125 -4.96875 12.96875 -5.894531 12.5 -6.6875 C 12.03125 -7.488281 11.457031 -8.164062 10.78125 -8.71875 C 10.101562 -9.269531 9.175781 -9.9375 8 -10.71875 C 6.84375 -11.457031 5.941406 -12.09375 5.296875 -12.625 C 4.660156 -13.15625 4.113281 -13.796875 3.65625 -14.546875 C 3.195312 -15.296875 2.96875 -16.175781 2.96875 -17.1875 C 2.96875 -18.46875 3.332031 -19.546875 4.0625 -20.421875 C 4.800781 -21.304688 5.75 -21.957031 6.90625 -22.375 C 8.070312 -22.800781 9.289062 -23.015625 10.5625 -23.015625 C 11.40625 -23.015625 12.257812 -22.9375 13.125 -22.78125 C 14 -22.625 14.703125 -22.4375 15.234375 -22.21875 C 15.453125 -22.125 15.597656 -22.019531 15.671875 -21.90625 C 15.742188 -21.800781 15.78125 -21.664062 15.78125 -21.5 L 15.78125 -16.171875 C 15.78125 -16.097656 15.71875 -16.039062 15.59375 -16 C 15.476562 -15.96875 15.40625 -15.988281 15.375 -16.0625 L 15.09375 -16.75 C 14.488281 -18.269531 13.78125 -19.5625 12.96875 -20.625 C 12.164062 -21.6875 11.039062 -22.21875 9.59375 -22.21875 C 8.625 -22.21875 7.832031 -21.9375 7.21875 -21.375 C 6.601562 -20.820312 6.296875 -20.019531 6.296875 -18.96875 Z M 6.296875 -18.96875" transform="translate(6.34 25.697)"/></g></g></g><path fill="#FFF" d="M 2.382812 11.992188 L 26.3125 11.992188 L 26.3125 17.800781 L 2.382812 17.800781 L 2.382812 11.992188"/><g clip-path="url(#b)"><g fill="#000221"><g><g><path d="M 3.03125 -1.179688 C 3.011719 -1.203125 2.984375 -1.210938 2.957031 -1.210938 C 2.925781 -1.210938 2.898438 -1.203125 2.878906 -1.179688 C 2.378906 -0.683594 1.671875 -0.453125 0.976562 -0.570312 C 0.921875 -0.582031 0.886719 -0.632812 0.894531 -0.6875 C 0.925781 -0.886719 0.910156 -1.089844 0.792969 -1.15625 C 0.71875 -1.199219 0.605469 -1.203125 0.472656 -0.976562 C 0.425781 -0.902344 0.40625 -0.8125 0.425781 -0.722656 C 0.445312 -0.636719 0.5 -0.558594 0.574219 -0.511719 C 0.621094 -0.472656 0.566406 -0.410156 0.535156 -0.382812 C 0.457031 -0.285156 0.320312 -0.269531 0.222656 -0.34375 C 0.105469 -0.398438 0.0507812 -0.53125 0.09375 -0.652344 C 0.148438 -0.875 0.367188 -1.066406 0.445312 -1.066406 C 0.503906 -1.066406 0.554688 -1.113281 0.554688 -1.171875 C 0.558594 -1.230469 0.507812 -1.28125 0.449219 -1.285156 L 0.445312 -1.285156 C 0.238281 -1.285156 -0.0429688 -1.003906 -0.117188 -0.707031 C -0.1875 -0.492188 -0.0859375 -0.253906 0.121094 -0.152344 C 0.199219 -0.109375 0.285156 -0.0859375 0.378906 -0.0820312 C 0.558594 -0.0898438 0.714844 -0.199219 0.789062 -0.367188 C 0.796875 -0.378906 0.820312 -0.386719 0.835938 -0.382812 C 1.363281 -0.222656 2.328125 -0.324219 3.03125 -1.023438 C 3.050781 -1.042969 3.066406 -1.074219 3.066406 -1.101562 C 3.066406 -1.132812 3.050781 -1.160156 3.03125 -1.179688 Z M 0.679688 -0.707031 C 0.632812 -0.75 0.625 -0.816406 0.660156 -0.863281 C 0.671875 -0.886719 0.683594 -0.898438 0.691406 -0.910156 C 0.695312 -0.84375 0.691406 -0.773438 0.679688 -0.707031 Z M 0.679688 -0.707031" transform="translate(.91 17.844)"/></g></g></g></g><g fill="#000221"><g><g><path d="M -0.0820312 -1.414062 C -0.0664062 -1.414062 -0.046875 -1.417969 -0.0351562 -1.425781 C 0.0664062 -1.476562 0.15625 -1.542969 0.234375 -1.621094 C 0.273438 -1.664062 0.269531 -1.734375 0.230469 -1.777344 C 0.183594 -1.816406 0.117188 -1.816406 0.0742188 -1.769531 C 0.0117188 -1.710938 -0.0585938 -1.65625 -0.132812 -1.617188 C -0.179688 -1.59375 -0.199219 -1.542969 -0.1875 -1.496094 C -0.175781 -1.445312 -0.132812 -1.414062 -0.0820312 -1.414062 Z M 2.191406 -1.117188 C 2.171875 -1.140625 2.144531 -1.148438 2.117188 -1.148438 C 2.085938 -1.148438 2.058594 -1.136719 2.039062 -1.113281 C 2.015625 -1.089844 1.488281 -0.554688 0.761719 -1.09375 C 0.703125 -1.136719 0.625 -1.132812 0.574219 -1.082031 C 0.476562 -0.992188 0.375 -0.894531 0.269531 -0.777344 C 0.257812 -0.765625 0.242188 -0.761719 0.222656 -0.769531 C 0.207031 -0.777344 0.199219 -0.792969 0.203125 -0.816406 C 0.230469 -0.945312 0.242188 -1.082031 0.238281 -1.21875 C 0.21875 -1.273438 0.164062 -1.308594 0.105469 -1.296875 C 0.046875 -1.28125 0.0117188 -1.222656 0.0234375 -1.164062 C 0.0234375 -0.90625 -0.0117188 -0.652344 -0.078125 -0.402344 C -0.0820312 -0.375 -0.101562 -0.34375 -0.117188 -0.320312 C -0.589844 0.285156 -1.015625 1.011719 -1.023438 1.472656 C -1.035156 1.597656 -0.988281 1.722656 -0.902344 1.816406 C -0.867188 1.855469 -0.820312 1.875 -0.765625 1.875 C -0.730469 1.875 -0.695312 1.867188 -0.664062 1.847656 C -0.386719 1.6875 -0.0820312 0.625 0.0898438 -0.210938 C 0.09375 -0.230469 0.105469 -0.246094 0.117188 -0.261719 C 0.28125 -0.472656 0.464844 -0.671875 0.660156 -0.863281 C 0.671875 -0.878906 0.691406 -0.878906 0.707031 -0.867188 C 1.160156 -0.53125 1.792969 -0.570312 2.199219 -0.960938 C 2.214844 -0.984375 2.230469 -1.011719 2.230469 -1.039062 C 2.230469 -1.070312 2.214844 -1.097656 2.191406 -1.117188 Z M -0.761719 1.652344 C -0.792969 1.601562 -0.8125 1.539062 -0.808594 1.476562 C -0.796875 1.175781 -0.554688 0.683594 -0.21875 0.191406 C -0.394531 0.867188 -0.625 1.554688 -0.761719 1.652344 Z M -0.761719 1.652344" transform="translate(3.783 17.844)"/></g></g></g><g fill="#000221"><g><g><path d="M 2.695312 -1.121094 C 2.648438 -1.164062 2.582031 -1.164062 2.539062 -1.117188 C 2.523438 -1.105469 1.175781 0.265625 0.28125 -0.386719 C 0.0078125 -0.585938 0.273438 -1.105469 0.277344 -1.109375 C 0.304688 -1.164062 0.28125 -1.226562 0.230469 -1.253906 C 0.175781 -1.28125 0.113281 -1.265625 0.0820312 -1.210938 C 0.0664062 -1.183594 -0.269531 -0.523438 0.152344 -0.210938 C 0.347656 -0.0664062 0.589844 0.0117188 0.835938 0.0078125 C 1.734375 0.0078125 2.644531 -0.917969 2.695312 -0.96875 C 2.714844 -0.988281 2.726562 -1.015625 2.726562 -1.042969 C 2.722656 -1.074219 2.714844 -1.101562 2.695312 -1.121094 Z M 0.0390625 -1.453125 C 0.0546875 -1.453125 0.0703125 -1.457031 0.0859375 -1.464844 C 0.1875 -1.511719 0.273438 -1.582031 0.351562 -1.660156 C 0.394531 -1.703125 0.390625 -1.769531 0.347656 -1.8125 C 0.304688 -1.855469 0.238281 -1.855469 0.195312 -1.808594 C 0.132812 -1.746094 0.0625 -1.695312 -0.015625 -1.65625 C -0.0585938 -1.632812 -0.0820312 -1.582031 -0.0703125 -1.535156 C -0.0585938 -1.484375 -0.0117188 -1.453125 0.0390625 -1.453125 Z M 0.0390625 -1.453125" transform="translate(5.824 17.844)"/></g></g></g><g fill="#000221"><g><g><path d="M 2.648438 -0.140625 C 2.726562 -0.171875 2.816406 -0.183594 2.898438 -0.167969 C 4.125 0.046875 5.570312 0.121094 6.746094 -0.8125 C 6.792969 -0.847656 6.796875 -0.914062 6.761719 -0.964844 C 6.722656 -1.011719 6.65625 -1.019531 6.613281 -0.980469 C 5.628906 -0.203125 4.46875 -0.167969 3.375 -0.3125 C 3.34375 -0.316406 3.3125 -0.34375 3.304688 -0.378906 C 3.296875 -0.414062 3.3125 -0.453125 3.347656 -0.46875 C 3.96875 -0.839844 4.53125 -1.410156 5.054688 -2.015625 C 5.121094 -2.097656 5.222656 -2.144531 5.328125 -2.164062 L 5.398438 -2.171875 C 7.171875 -2.410156 8.363281 -4.042969 8.390625 -4.664062 C 8.402344 -4.898438 8.261719 -4.957031 8.199219 -4.972656 C 7.351562 -5.171875 6.539062 -4.171875 5.601562 -3.015625 C 5.460938 -2.835938 5.308594 -2.652344 5.160156 -2.472656 C 5.09375 -2.394531 5 -2.34375 4.898438 -2.339844 C 3.867188 -2.277344 3.203125 -2.535156 3.039062 -3.070312 C 2.875 -3.613281 3.300781 -4.371094 3.945312 -4.683594 C 4 -4.707031 4.023438 -4.773438 4 -4.828125 C 3.972656 -4.882812 3.910156 -4.902344 3.855469 -4.878906 C 3.101562 -4.515625 2.636719 -3.660156 2.832031 -3.007812 C 2.941406 -2.640625 3.328125 -2.089844 4.664062 -2.113281 C 4.699219 -2.113281 4.726562 -2.089844 4.742188 -2.0625 C 4.757812 -2.035156 4.75 -2 4.726562 -1.976562 C 4.175781 -1.351562 3.570312 -0.789062 2.921875 -0.496094 L 2.863281 -0.46875 C 2.785156 -0.433594 2.703125 -0.425781 2.621094 -0.441406 C 2.449219 -0.472656 2.28125 -0.507812 2.125 -0.539062 C 1.207031 -0.730469 0.476562 -0.882812 0.136719 -0.519531 C 0.0507812 -0.4375 0.0429688 -0.304688 0.113281 -0.207031 C 0.207031 -0.0507812 0.535156 0.1875 1.164062 0.1875 C 1.675781 0.171875 2.179688 0.0585938 2.648438 -0.140625 Z M 0.800781 -0.523438 C 1.234375 -0.503906 1.664062 -0.4375 2.078125 -0.328125 C 2.28125 -0.277344 2.234375 -0.222656 2.195312 -0.210938 C 1.035156 0.152344 0.511719 -0.15625 0.394531 -0.222656 C 0.304688 -0.277344 0.292969 -0.328125 0.292969 -0.367188 C 0.292969 -0.472656 0.574219 -0.523438 0.800781 -0.523438 Z M 7.984375 -4.777344 C 8.039062 -4.777344 8.097656 -4.773438 8.148438 -4.761719 C 8.175781 -4.753906 8.175781 -4.710938 8.175781 -4.671875 C 8.152344 -4.234375 7.191406 -2.765625 5.609375 -2.429688 C 5.570312 -2.421875 5.535156 -2.4375 5.515625 -2.46875 C 5.492188 -2.5 5.496094 -2.539062 5.523438 -2.570312 C 5.605469 -2.671875 5.6875 -2.777344 5.773438 -2.878906 C 6.59375 -3.890625 7.3125 -4.777344 7.984375 -4.777344 Z M 7.984375 -4.777344" transform="translate(8.378 17.844)"/></g></g></g><g fill="#000221"><g><g><path d="M 3.488281 -1.070312 C 3.46875 -1.089844 3.441406 -1.105469 3.414062 -1.105469 C 3.386719 -1.109375 3.355469 -1.101562 3.335938 -1.085938 C 3.316406 -1.074219 1.71875 0.199219 0.382812 -0.347656 C 0.113281 -0.460938 0.101562 -0.605469 0.109375 -0.6875 C 0.109375 -0.699219 0.113281 -0.710938 0.125 -0.71875 C 0.132812 -0.726562 0.148438 -0.726562 0.164062 -0.722656 C 0.433594 -0.707031 0.703125 -0.777344 0.9375 -0.921875 C 1.136719 -1.050781 1.167969 -1.195312 1.15625 -1.285156 C 1.148438 -1.433594 1.027344 -1.554688 0.875 -1.558594 C 0.542969 -1.574219 -0.00390625 -1.183594 -0.09375 -0.769531 C -0.132812 -0.617188 -0.128906 -0.324219 0.300781 -0.148438 C 0.5625 -0.0429688 0.835938 0.0078125 1.113281 0.0078125 C 2.308594 0.0078125 3.414062 -0.867188 3.472656 -0.914062 C 3.492188 -0.929688 3.507812 -0.960938 3.507812 -0.984375 C 3.515625 -1.015625 3.503906 -1.042969 3.488281 -1.070312 Z M 0.257812 -0.976562 C 0.421875 -1.203125 0.691406 -1.351562 0.859375 -1.339844 C 0.90625 -1.339844 0.929688 -1.324219 0.941406 -1.261719 C 0.945312 -1.21875 0.898438 -1.160156 0.816406 -1.105469 C 0.644531 -0.992188 0.132812 -0.8125 0.257812 -0.976562 Z M 0.257812 -0.976562" transform="translate(15.526 17.844)"/></g></g></g><g fill="#000221"><g><g><path d="M 3.476562 -1.007812 C 3.433594 -1.050781 3.363281 -1.054688 3.316406 -1.015625 C 3.304688 -1.003906 2.070312 0.109375 1.304688 -0.394531 C 1.003906 -0.59375 0.925781 -1.078125 0.925781 -1.082031 C 0.921875 -1.132812 0.886719 -1.167969 0.835938 -1.175781 C 0.789062 -1.179688 0.738281 -1.15625 0.71875 -1.113281 C 0.523438 -0.683594 0.179688 -0.132812 0.0820312 -0.195312 C 0.0742188 -0.195312 0.0585938 -0.210938 0.046875 -0.242188 C -0.00390625 -0.378906 0.0117188 -0.527344 0.0820312 -0.65625 C 0.242188 -0.980469 0.53125 -1.214844 0.882812 -1.300781 C 0.917969 -1.308594 0.949219 -1.339844 0.960938 -1.375 C 0.972656 -1.414062 0.960938 -1.457031 0.9375 -1.484375 C 0.90625 -1.507812 0.867188 -1.523438 0.832031 -1.511719 C 0.414062 -1.414062 0.0703125 -1.132812 -0.117188 -0.75 C -0.214844 -0.5625 -0.230469 -0.335938 -0.148438 -0.140625 C -0.113281 -0.046875 -0.0195312 0.0195312 0.0820312 0.0195312 L 0.0859375 0.0195312 C 0.292969 0.015625 0.542969 -0.238281 0.71875 -0.511719 C 0.738281 -0.542969 0.777344 -0.5625 0.816406 -0.558594 C 0.851562 -0.558594 0.886719 -0.535156 0.902344 -0.503906 C 0.972656 -0.386719 1.070312 -0.285156 1.183594 -0.214844 C 2.089844 0.386719 3.410156 -0.800781 3.46875 -0.851562 C 3.488281 -0.875 3.5 -0.902344 3.5 -0.925781 C 3.503906 -0.957031 3.492188 -0.984375 3.476562 -1.007812 Z M 3.476562 -1.007812" transform="translate(18.856 17.844)"/></g></g></g><g fill="#000221"><g><g><path d="M 3.585938 -1.09375 C 3.5625 -1.113281 3.539062 -1.125 3.507812 -1.125 C 3.480469 -1.125 3.453125 -1.113281 3.429688 -1.09375 C 2.710938 -0.390625 1.433594 -0.242188 1.160156 -0.402344 C 0.972656 -0.511719 0.992188 -0.640625 1.125 -0.898438 C 1.1875 -1.023438 1.261719 -1.167969 1.140625 -1.253906 C 1.027344 -1.339844 0.917969 -1.285156 0.824219 -1.234375 C 0.6875 -1.15625 0.53125 -1.113281 0.371094 -1.113281 C 0.332031 -1.113281 0.300781 -1.179688 0.308594 -1.207031 C 0.539062 -1.71875 0.4375 -1.8125 0.398438 -1.851562 C 0.335938 -1.914062 0.242188 -1.910156 0.125 -1.839844 C -0.0664062 -1.699219 -0.148438 -1.457031 -0.0820312 -1.226562 C -0.0664062 -1.164062 -0.0390625 -1.105469 0.00390625 -1.054688 C 0 -1.011719 0.0195312 -0.96875 0.0625 -0.949219 C 0.0859375 -0.9375 0.117188 -0.9375 0.144531 -0.945312 C 0.214844 -0.910156 0.296875 -0.894531 0.375 -0.894531 C 0.542969 -0.890625 0.710938 -0.925781 0.859375 -1.011719 C 0.917969 -1.039062 0.941406 -1.015625 0.929688 -0.996094 C 0.832031 -0.800781 0.652344 -0.445312 1.050781 -0.210938 C 1.195312 -0.144531 1.351562 -0.117188 1.507812 -0.128906 C 2.089844 -0.128906 3.007812 -0.378906 3.582031 -0.941406 C 3.601562 -0.957031 3.613281 -0.984375 3.613281 -1.015625 C 3.617188 -1.042969 3.605469 -1.074219 3.585938 -1.09375 Z M 0.121094 -1.324219 C 0.09375 -1.441406 0.136719 -1.566406 0.234375 -1.648438 C 0.203125 -1.535156 0.167969 -1.425781 0.121094 -1.316406 Z M 0.121094 -1.324219" transform="translate(22.216 17.844)"/></g></g></g><g clip-path="url(#c)"><g fill="#000221"><g><g><path d="M 3.632812 -1.035156 C 3.609375 -1.050781 3.585938 -1.066406 3.554688 -1.066406 C 3.527344 -1.058594 3.496094 -1.046875 3.480469 -1.027344 C 3.46875 -1.019531 2.554688 -0.0429688 1.757812 -0.363281 C 1.589844 -0.453125 1.453125 -0.589844 1.355469 -0.761719 C 1.324219 -0.816406 1.28125 -0.867188 1.230469 -0.917969 C 1.175781 -0.984375 1.09375 -1.023438 1.007812 -1.027344 C 0.792969 -1.042969 0.535156 -0.902344 0.230469 -0.609375 C 0.21875 -0.601562 0.207031 -0.597656 0.195312 -0.605469 C 0.183594 -0.609375 0.175781 -0.628906 0.179688 -0.640625 L 0.269531 -1.046875 C 0.285156 -1.105469 0.25 -1.167969 0.191406 -1.179688 C 0.132812 -1.195312 0.0742188 -1.15625 0.0585938 -1.097656 L -0.148438 -0.1875 C -0.164062 -0.136719 -0.136719 -0.0859375 -0.0898438 -0.0664062 C -0.046875 -0.0429688 0.0078125 -0.0546875 0.0429688 -0.0898438 C 0.597656 -0.746094 0.882812 -0.808594 0.980469 -0.8125 C 1.082031 -0.816406 1.144531 -0.6875 1.175781 -0.636719 C 1.292969 -0.433594 1.46875 -0.265625 1.675781 -0.164062 C 2.605469 0.214844 3.597656 -0.835938 3.636719 -0.882812 C 3.679688 -0.921875 3.675781 -0.992188 3.632812 -1.035156 Z M 3.632812 -1.035156" transform="translate(25.626 17.844)"/></g></g></g></g></svg>